<svg width="1440" height="935" viewBox="0 0 1440 935" fill="none" xmlns="http://www.w3.org/2000/svg">
<g clip-path="url(#clip0_1_158)">
<g opacity="0.08">
<path d="M1216.84 1095.1C1210.38 1082.61 1201.56 1070.25 1192.25 1057.18C1176.3 1034.79 1160.05 1011.87 1154.08 986.555C1144.38 965.408 1138.66 943.366 1142.9 920.147C1147.98 892.433 1177.31 874.535 1204.25 876.783C1288.7 883.859 1330.35 992.027 1419.83 980.355L1419.94 980.319C1458.38 978.539 1491.84 946.278 1510.76 916.528C1542.71 865.983 1556.48 788.038 1543.3 725.743C1542.26 723.092 1541.3 720.292 1540.25 717.641C1531.29 693.896 1521.45 667.575 1514.18 640.682C1498.94 595.82 1487.29 547.828 1497.43 505.089C1513.31 437.656 1609.36 424.517 1611.56 482.473C1614.34 484.321 1616.98 486.466 1619.08 488.903C1627.54 498.392 1635.02 516.766 1621.79 549.803C1607.51 585.658 1605.79 615.411 1616.1 643.448C1625.25 668.125 1643.99 691.994 1676.7 720.862C1705.75 746.423 1743.02 768.001 1782.58 790.715C1843.51 825.899 1906.65 862.367 1939.39 915.831C1959.43 948.605 1972.25 989.39 1977.4 1037.21C1979.93 1060.64 1980.68 1085.88 1979.55 1112.58L1972.26 1114.9C1973.54 1087.52 1972.86 1061.77 1970.29 1037.86C1965.27 991.114 1952.76 951.225 1933.29 919.386C1901.47 867.493 1839.25 831.479 1778.97 796.711C1739.18 773.697 1701.48 752.004 1671.9 725.991C1638.16 696.333 1618.85 671.529 1609.31 645.732C1598.26 615.94 1600.09 584.662 1615.05 547.101C1624.46 523.482 1623.89 505.02 1613.6 493.505C1604.37 483.265 1588.08 479.623 1569.85 483.926C1549.16 488.766 1522.41 506.092 1514.62 538.768C1501.4 594.54 1526.7 661.557 1546.93 715.393C1548.98 720.956 1551.1 726.37 1553.07 731.709C1576.98 796.183 1566.05 890.749 1527.61 951.432C1508.32 981.922 1473.65 1015.07 1433.96 1016.87L1433.85 1016.91C1394.04 1018.38 1356.76 989.098 1320.78 960.648C1294.77 940.212 1270.28 920.906 1245.6 913.096C1222.02 905.556 1200.46 906.444 1185 915.46C1171.97 923.084 1163.64 935.922 1160.32 953.753C1153.46 990.605 1176.23 1022.51 1198.12 1053.33C1207.63 1066.59 1216.52 1079.17 1223.25 1092.06C1242.51 1129.19 1253.93 1176.51 1255.46 1225.23C1256.83 1271.27 1248.8 1314.96 1232.69 1349.9L1223.24 1352.91C1240.75 1318.01 1249.58 1272.95 1248.16 1225.31C1246.83 1178.27 1235.37 1130.83 1216.84 1095.1Z" fill="#17FFE5"/>
</g>
</g>
<defs>
<clipPath id="clip0_1_158">
<rect width="1920" height="935" fill="white" transform="matrix(-1 0 0 -1 1680 935)"/>
</clipPath>
</defs>
</svg>
