<svg width="1920" height="935" viewBox="0 0 1920 935" fill="none" xmlns="http://www.w3.org/2000/svg">
<g clip-path="url(#clip0_1_316)">
<g opacity="0.08">
<path d="M2561.04 718.036L2562.59 722.507C2474.52 685.882 2379.24 570.929 2318.39 427.663C2301.95 388.855 2277.97 368.074 2248.97 367.496C2227.61 367.093 2204.52 377.412 2182.16 397.543C2159.92 417.638 2140.46 445.408 2125.92 477.938C2120.36 490.373 2112.87 504.908 2104.82 520.368C2067.58 592.119 2016.75 690.391 2074.47 744.85C2106.09 774.611 2144.72 769.772 2185.51 764.617C2226.91 759.394 2269.76 753.959 2303.2 788.601C2313.25 799.049 2322.25 811.941 2330.2 827.275L2323.25 829.482C2315.77 815.118 2307.34 803.16 2297.9 793.385C2267.02 761.402 2227.79 766.31 2186.39 771.534C2145.59 776.689 2103.47 782.018 2069.36 749.822C2024.36 707.319 2040.09 642.036 2066.83 581.192C2084.3 534.088 2110.46 487.689 2123.94 455.373C2170.17 344.174 2276.11 280.726 2330.32 391.619C2383.81 500.76 2459.2 591.772 2534.14 640.508L2561.04 718.036Z" fill="#17FFE5"/>
<path d="M1456.84 1095.1C1450.38 1082.61 1441.56 1070.25 1432.25 1057.18C1416.3 1034.79 1400.05 1011.87 1394.08 986.555C1384.38 965.408 1378.66 943.366 1382.9 920.147C1387.98 892.433 1417.31 874.535 1444.25 876.783C1528.7 883.859 1570.35 992.027 1659.83 980.355L1659.95 980.319C1698.38 978.539 1731.84 946.278 1750.76 916.528C1782.71 865.983 1796.48 788.038 1783.3 725.743C1782.26 723.092 1781.3 720.292 1780.25 717.641C1771.29 693.896 1761.45 667.575 1754.18 640.682C1738.94 595.82 1727.29 547.828 1737.43 505.089C1753.31 437.656 1849.36 424.517 1851.56 482.473C1854.34 484.321 1856.98 486.466 1859.08 488.903C1867.54 498.392 1875.03 516.766 1861.79 549.803C1847.51 585.658 1845.79 615.411 1856.1 643.448C1865.25 668.125 1883.99 691.994 1916.7 720.862C1945.75 746.423 1983.02 768.001 2022.58 790.715C2083.51 825.899 2146.65 862.367 2179.39 915.831C2199.43 948.605 2212.25 989.39 2217.4 1037.21C2219.93 1060.64 2220.68 1085.88 2219.55 1112.58L2212.26 1114.9C2213.54 1087.52 2212.86 1061.77 2210.29 1037.86C2205.27 991.114 2192.76 951.225 2173.29 919.386C2141.47 867.493 2079.25 831.479 2018.97 796.711C1979.18 773.697 1941.48 752.004 1911.9 725.991C1878.16 696.333 1858.85 671.529 1849.31 645.732C1838.26 615.94 1840.09 584.662 1855.05 547.101C1864.46 523.482 1863.89 505.02 1853.6 493.505C1844.37 483.265 1828.08 479.623 1809.85 483.926C1789.16 488.766 1762.41 506.092 1754.62 538.768C1741.4 594.54 1766.7 661.557 1786.93 715.393C1788.98 720.956 1791.1 726.37 1793.07 731.709C1816.98 796.183 1806.05 890.749 1767.61 951.432C1748.32 981.922 1713.65 1015.07 1673.96 1016.87L1673.85 1016.91C1634.04 1018.38 1596.76 989.098 1560.78 960.648C1534.77 940.212 1510.28 920.906 1485.6 913.096C1462.02 905.556 1440.46 906.444 1425 915.46C1411.97 923.084 1403.64 935.922 1400.32 953.753C1393.46 990.605 1416.23 1022.51 1438.12 1053.33C1447.63 1066.59 1456.52 1079.17 1463.25 1092.06C1482.51 1129.19 1493.93 1176.51 1495.46 1225.23C1496.83 1271.27 1488.8 1314.96 1472.69 1349.9L1463.24 1352.91C1480.75 1318.01 1489.58 1272.95 1488.16 1225.31C1486.83 1178.27 1475.37 1130.83 1456.84 1095.1Z" fill="#17FFE5"/>
<path d="M2515.15 460.345C2461.61 409.506 2411.01 361.331 2367.66 353.157C2340.92 348.134 2320.77 351.937 2305.99 364.701C2266.33 399.395 2274.15 494.793 2280.99 578.964C2286.24 642.428 2290.64 697.227 2276.47 724.189C2259.47 756.514 2235.68 774.625 2205.8 778.046C2120.34 787.975 2010.63 676.467 1979.02 641.979C1928.84 587.343 1917.79 540.362 1939.35 474.083C1942.04 465.784 1945.52 456.86 1949.19 447.381C1965.26 405.798 1985.11 353.955 1954.78 316.58C1931.03 287.286 1926.8 250.544 1942.61 210.407C1955.92 176.899 1983 142.357 2017.01 115.789C2029.34 106.161 2042.47 97.023 2055.19 88.1415C2102.42 55.2593 2146.96 24.1002 2161.95 -34.5081C2166.78 -53.4141 2170.46 -75.302 2172.42 -98.5051L2179.82 -100.856C2177.9 -76.0553 2174.08 -52.7568 2168.91 -32.6278C2153.25 28.4268 2105.53 61.7134 2059.36 94.0102C2046.76 102.856 2033.7 111.845 2021.48 121.437C1988.35 147.233 1962.01 180.666 1949.24 213.139C1938.86 239.39 1932.35 277.935 1960.27 312.355C1993.2 352.873 1972.52 406.714 1955.78 450.001C1952.19 459.332 1948.82 468.22 1946.09 476.407C1925.43 539.796 1936.08 584.916 1984.24 637.343C2002.24 656.928 2038.91 694.395 2082.47 725.457C2130.48 759.566 2171.63 774.892 2204.66 771.089C2232.07 767.833 2254.05 751.043 2269.92 720.938C2283.19 695.752 2278.55 639.166 2273.7 579.422C2266.65 493.577 2258.71 396.357 2301.02 359.457C2317.32 345.219 2340.05 340.845 2368.8 346.219C2414.32 354.821 2465.64 403.634 2519.98 455.334C2568.48 501.447 2618.24 548.649 2664.96 568.035L2667.97 576.755C2618.33 558.421 2566.13 508.895 2515.15 460.345Z" fill="#17FFE5"/>
<path d="M1905.78 1180.74C1882.33 1153.97 1868.2 1127.44 1865.86 1106.06C1862.55 1075.63 1879.56 1052.95 1896.11 1031.09C1901.97 1023.19 1908.17 1014.94 1913.18 1006.59C1926.26 984.725 1929.27 962.497 1932.49 938.917C1935.85 914.348 1939.24 888.995 1955.02 864.324L1955.41 863.871C1964.79 853.203 1974.13 845.048 1983.11 839.495C2017.45 809.771 2063.64 794.429 2092.64 828.313C2129.14 871.033 2079.16 947.488 2076.01 995.221C2071.66 1060.03 2125.12 1105.9 2128.45 1169.91C2130.84 1215.7 2092.81 1257.82 2072.37 1261.06C2069.92 1261.47 2067.31 1261.66 2064.75 1261.75C2063.28 1262.15 2061.86 1262.46 2060.33 1262.7C2039.39 1266.07 2013.37 1259.77 1984.96 1244.46C1957.03 1229.54 1928.25 1206.3 1905.78 1180.74ZM1939.77 940.042C1936.62 963.259 1933.33 987.202 1919.56 1010.29C1914.37 1018.95 1908.11 1027.3 1902.03 1035.35C1885.64 1057.16 1870.17 1077.87 1873.15 1105.46C1877.57 1146.21 1930.39 1207.19 1988.38 1238.44C2015.3 1252.95 2039.7 1258.91 2058.95 1255.82C2079.56 1252.54 2088.89 1230.66 2086.88 1191.07C2085.46 1163.66 2079.54 1136.35 2073.7 1109.89C2066.05 1074.59 2058.07 1038.18 2060.53 1000.73C2061.44 987.102 2064.32 973.198 2067.18 959.816C2074.52 925.27 2081.37 892.587 2056.22 863.179C2048.36 854.011 2040.31 847.14 2032.54 842.954C2010.2 830.91 1986.75 839.194 1960.95 868.32C1946.3 891.734 1942.94 916.302 1939.77 940.042Z" fill="#17FFE5"/>
</g>
</g>
<defs>
<clipPath id="clip0_1_316">
<rect width="1920" height="935" fill="white" transform="matrix(-1 0 0 -1 1920 935)"/>
</clipPath>
</defs>
</svg>
