<svg width="1920" height="903" viewBox="0 0 1920 903" fill="none" xmlns="http://www.w3.org/2000/svg">
<g clip-path="url(#clip0_1_291)">
<g opacity="0.08">
<path d="M-641.239 225.998L-642.756 221.419C-554.624 258.403 -459.825 375.744 -399.803 522.391C-383.592 562.114 -359.676 583.28 -330.567 583.672C-309.127 583.936 -285.871 573.183 -263.281 552.361C-240.806 531.578 -221.062 502.934 -206.23 469.439C-200.558 456.636 -192.936 441.662 -184.739 425.736C-146.821 351.82 -95.0742 250.585 -152.609 195.082C-184.138 164.752 -222.948 169.988 -263.934 175.564C-305.531 181.215 -348.577 187.092 -381.889 151.763C-391.901 141.107 -400.84 127.936 -408.706 112.25L-401.719 109.936C-394.309 124.63 -385.941 136.846 -376.537 146.815C-345.777 179.432 -306.356 174.12 -264.759 168.469C-223.773 162.894 -181.452 157.129 -147.448 189.943C-102.593 233.26 -118.866 300.386 -146.156 363.032C-164.033 411.509 -190.644 459.322 -204.408 492.59C-251.641 607.064 -358.445 672.934 -412.048 559.474C-464.93 447.808 -539.94 354.905 -614.807 305.397L-641.239 225.998Z" fill="#17FFE5"/>
<path d="M465.763 -165.929C472.153 -153.163 480.909 -140.544 490.159 -127.199C505.994 -104.332 522.134 -80.9307 527.932 -54.993C537.513 -33.3616 543.086 -10.7844 538.662 13.0697C533.354 41.5419 503.796 60.1114 476.789 57.9918C392.104 51.3198 351.109 -59.3802 261.244 -46.7815L261.129 -46.7435C222.555 -44.6497 188.741 -11.313 169.542 19.344C137.11 71.4308 122.718 151.505 135.477 215.334C136.503 218.047 137.452 220.913 138.478 223.626C147.292 247.928 156.979 274.867 164.071 302.411C179.032 348.338 190.364 397.502 179.881 441.426C163.446 510.729 66.9785 524.879 65.2004 465.426C62.4182 463.55 59.7891 461.368 57.6946 458.881C49.2781 449.203 41.9057 430.402 55.4252 396.411C70.0174 359.521 71.9719 328.98 61.8296 300.284C52.8266 275.026 34.2083 250.665 1.59617 221.271C-27.3586 195.246 -64.5986 173.365 -104.126 150.333C-164.998 114.656 -228.081 77.6753 -260.54 23.0443C-280.403 -10.4453 -292.967 -52.2048 -297.775 -101.24C-300.142 -125.262 -300.712 -151.15 -299.373 -178.562L-292.045 -180.99C-293.538 -152.891 -293.044 -126.468 -290.64 -101.951C-285.945 -54.0225 -273.685 -13.18 -254.392 19.3538C-222.846 72.3793 -160.678 108.899 -100.454 144.155C-60.6982 167.493 -23.0387 189.49 6.44945 215.975C40.0904 246.172 59.2795 271.489 68.6623 297.893C79.5266 328.385 77.4553 360.491 62.1737 399.137C52.5605 423.438 52.9892 442.377 63.2338 454.121C72.4122 464.564 88.7352 468.188 107.055 463.645C127.855 458.535 154.817 440.571 162.88 406.988C176.55 349.669 151.667 281.079 131.76 225.979C129.747 220.286 127.657 214.745 125.72 209.281C102.206 143.291 113.876 46.1812 152.886 -16.3533C172.468 -47.7731 207.505 -82.0235 247.338 -84.1529L247.452 -84.1908C287.399 -85.9763 324.589 -56.1914 360.483 -27.2493C386.432 -6.46116 410.856 13.1783 435.566 21.0202C459.17 28.5924 480.803 27.5314 496.383 18.172C509.519 10.2583 517.971 -2.97265 521.432 -21.2925C528.587 -59.1534 505.975 -91.7325 484.239 -123.203C474.799 -136.739 465.967 -149.587 459.311 -162.774C440.256 -200.729 429.152 -249.205 427.97 -299.188C426.936 -346.421 435.322 -391.304 451.744 -427.275L461.248 -430.423C443.415 -394.494 434.226 -348.2 435.295 -299.325C436.289 -251.061 447.431 -202.47 465.763 -165.929Z" fill="#17FFE5"/>
<path d="M-595.585 491.285C-542.171 543.138 -491.691 592.275 -448.197 600.371C-421.376 605.344 -401.102 601.298 -386.156 588.081C-346.054 552.164 -353.203 454.215 -359.457 367.793C-364.262 302.633 -368.281 246.368 -353.842 218.571C-336.53 185.245 -312.489 166.473 -282.446 162.75C-196.515 151.955 -87.1112 265.742 -55.6124 300.952C-5.60258 356.73 5.14853 404.917 -16.9977 473.156C-19.7612 481.701 -23.3274 490.892 -27.0854 500.656C-43.5367 543.487 -63.862 596.883 -33.6663 635.068C-10.02 664.996 -6.04327 702.712 -22.2247 744.055C-35.8365 778.571 -63.3047 814.245 -97.6659 841.776C-110.126 851.753 -123.387 861.232 -136.227 870.444C-183.921 904.554 -228.901 936.874 -244.392 997.188C-249.389 1016.64 -253.246 1039.15 -255.389 1063.01L-262.836 1065.47C-260.728 1039.98 -256.715 1016.02 -251.373 995.304C-235.19 932.473 -187 897.945 -140.377 864.444C-127.651 855.27 -114.466 845.943 -102.121 836.004C-68.6388 809.273 -41.9361 774.743 -28.8605 741.295C-18.2392 714.254 -11.4115 674.612 -39.2083 639.447C-71.9934 598.051 -50.8247 542.596 -33.6833 498.01C-30.0018 488.399 -26.5502 479.245 -23.7487 470.816C-2.52388 405.551 -12.8969 359.274 -60.888 305.751C-78.8276 285.757 -115.397 247.522 -158.924 215.916C-206.912 181.21 -248.141 165.753 -281.352 169.889C-308.915 173.426 -331.121 190.827 -347.283 221.865C-360.803 247.832 -356.558 305.93 -352.129 367.272C-345.687 455.412 -338.427 555.232 -381.204 593.434C-397.68 608.174 -420.55 612.826 -449.393 607.506C-495.062 598.987 -546.266 549.199 -600.48 496.466C-648.864 449.432 -698.506 401.288 -745.3 381.698L-748.261 372.761C-698.526 391.25 -646.446 441.764 -595.585 491.285Z" fill="#17FFE5"/>
<path d="M14.86 -254.15C38.0332 -226.722 51.9221 -199.462 54.0898 -177.44C57.1678 -146.09 40.0441 -122.599 23.3875 -99.9523C17.485 -91.7697 11.2432 -83.223 6.18566 -74.5733C-7.01298 -51.9457 -10.1769 -29.0107 -13.5607 -4.68044C-17.0947 20.67 -20.6622 46.8293 -36.5743 72.3697L-36.9718 72.8394C-46.3966 83.9013 -55.7683 92.3724 -64.7588 98.1585C-99.2039 129.036 -145.355 145.168 -174.006 110.437C-210.061 66.6483 -159.68 -12.5104 -156.185 -61.7385C-151.366 -128.576 -204.307 -175.494 -207.141 -241.46C-209.185 -288.649 -170.969 -332.334 -150.568 -335.811C-148.119 -336.25 -145.517 -336.467 -142.974 -336.578C-141.497 -337.003 -140.08 -337.322 -138.556 -337.583C-117.664 -341.202 -91.7798 -334.891 -63.5792 -319.301C-35.8483 -304.109 -7.3376 -280.349 14.86 -254.15ZM-20.8072 -5.79062C-17.493 -29.7457 -14.0397 -54.4512 -0.140397 -78.3463C5.09235 -87.3129 11.3925 -95.9652 17.5174 -104.301C34.01 -126.9 49.5907 -148.349 46.8235 -176.769C42.7269 -218.749 -9.46115 -281.247 -67.0242 -313.069C-93.7461 -327.842 -118.023 -333.816 -137.229 -330.506C-157.794 -326.981 -167.265 -304.362 -165.55 -263.561C-164.342 -235.313 -158.645 -207.204 -153.02 -179.962C-145.665 -143.627 -137.979 -106.144 -140.712 -67.5263C-141.726 -53.4695 -144.697 -39.1155 -147.645 -25.3008C-155.225 10.3617 -162.294 44.1008 -137.45 74.2449C-129.682 83.6415 -121.708 90.6697 -113.998 94.9322C-91.8178 107.194 -68.3919 98.4942 -42.4555 68.291C-27.6777 44.0541 -24.1437 18.7037 -20.8072 -5.79062Z" fill="#17FFE5"/>
</g>
<g opacity="0.08">
<path d="M2216.42 -471.477L2221.16 -472.373C2172.8 -389.933 2043.91 -311.557 1890.59 -271.541C1849.07 -260.749 1824.91 -239.855 1820.66 -211.056C1817.55 -189.84 1825.12 -165.362 1842.75 -140.208C1860.37 -115.172 1886.14 -91.7991 1917.37 -72.6504C1929.3 -65.3281 1943.13 -55.7849 1957.83 -45.5461C2026.05 1.85284 2119.52 66.5849 2182.17 16.9302C2216.42 -10.291 2216.39 -49.4532 2216.3 -90.8166C2216.23 -132.795 2216.12 -176.241 2255.56 -204.566C2267.45 -213.074 2281.69 -220.185 2298.28 -225.898L2299.65 -218.666C2284.1 -213.273 2270.88 -206.601 2259.75 -198.605C2223.34 -172.448 2223.37 -132.671 2223.44 -90.6922C2223.53 -49.3289 2223.62 -6.61663 2186.58 22.7278C2137.69 61.4332 2073.32 36.3898 2014.85 1.02221C1969.18 -23.1332 1925.32 -55.8587 1894.18 -73.9181C1786.99 -135.935 1735.89 -250.541 1855.46 -288.602C1973.16 -326.186 2075.2 -388.194 2134.21 -455.824L2216.42 -471.477Z" fill="#17FFE5"/>
<path d="M2247.08 859.059C2233.58 863.697 2219.91 870.699 2205.46 878.095C2180.69 890.754 2155.35 903.643 2128.87 905.945C2106.16 912.568 2083.04 915.094 2059.99 907.542C2032.47 898.499 2017.99 866.737 2023.68 840.25C2041.54 757.202 2156.7 731.271 2156.15 640.528L2156.13 640.41C2159.18 601.9 2130.63 563.957 2102.79 540.857C2055.47 501.795 1978.02 476.898 1913.06 481.067C1910.23 481.723 1907.27 482.284 1904.44 482.94C1879.18 488.449 1851.2 494.473 1822.96 497.844C1775.45 506.573 1725.22 511.276 1683.07 495.053C1616.57 469.56 1615.35 372.068 1674.51 378.201C1676.74 375.693 1679.26 373.376 1682 371.631C1692.71 364.574 1712.32 359.764 1744.22 377.677C1778.84 397.039 1808.85 403.032 1838.64 396.791C1864.87 391.222 1891.49 376.003 1924.95 347.583C1954.59 322.341 1981.23 288.337 2009.3 252.218C2052.75 196.623 2097.78 139.01 2156.24 114.093C2192.07 98.8533 2235.13 91.9464 2284.37 93.6928C2308.49 94.5372 2334.22 97.4095 2361.21 102.377L2362.65 109.963C2335 104.752 2308.74 101.732 2284.12 100.859C2235.99 99.1481 2193.89 105.876 2159.08 120.677C2102.33 144.902 2057.88 201.669 2014.94 256.678C1986.53 292.983 1959.73 327.387 1929.56 353.097C1895.16 382.43 1867.52 398.087 1840.1 403.88C1808.44 410.599 1776.89 404.282 1740.62 384.004C1717.81 371.249 1698.98 369.159 1685.98 377.753C1674.41 385.463 1668.65 401.16 1670.72 419.921C1673.02 441.215 1687.25 470.325 1719.46 482.776C1774.46 503.937 1845.75 488.382 1903 475.969C1908.91 474.73 1914.68 473.394 1920.35 472.2C1988.88 457.657 2083.58 482.121 2140.38 529.09C2168.92 552.671 2198.22 591.946 2195.04 631.709L2195.06 631.827C2191.53 671.657 2157.07 704.562 2123.61 736.295C2099.56 759.253 2076.85 780.853 2065.8 804.303C2055.16 826.692 2053.34 848.274 2060.55 864.959C2066.65 879.03 2078.64 889.164 2096.34 895.028C2132.91 907.147 2168.2 889.062 2202.28 871.697C2216.95 864.138 2230.86 857.091 2244.81 852.245C2284.96 838.399 2334.48 833.831 2384.18 839.297C2431.13 844.545 2474.51 858.817 2507.98 879.87L2509.84 889.709C2476.59 867.262 2431.93 852.006 2383.34 846.576C2335.38 841.151 2285.74 845.742 2247.08 859.059Z" fill="#17FFE5"/>
<path d="M1723.39 -268.774C1664.9 -222.719 1609.5 -179.212 1595.7 -137.178C1587.21 -111.254 1588.53 -90.6231 1599.64 -74.0535C1629.91 -29.5375 1727.94 -23.6157 1814.43 -18.3377C1879.65 -14.4464 1935.95 -10.9579 1961.59 7.0448C1992.32 28.6289 2007.73 54.9493 2007.43 85.2208C2006.72 171.824 1879.41 265.149 1840.33 291.693C1778.41 333.852 1729.22 338.109 1664.52 307.097C1656.42 303.223 1647.79 298.468 1638.61 293.446C1598.34 271.453 1548.12 244.217 1506.26 269.074C1473.46 288.537 1435.55 287.469 1396.72 265.941C1364.32 247.866 1332.61 215.904 1309.88 178.191C1301.65 164.516 1294.01 150.114 1286.59 136.164C1259.11 84.3632 1233.05 35.4893 1175.33 12.1261C1156.71 4.58953 1134.91 -2.22339 1111.56 -7.51438L1110.1 -15.2228C1135.09 -9.74876 1158.3 -2.5894 1178.12 5.45702C1238.25 29.8401 1266.07 82.1886 1293.09 132.848C1300.49 146.68 1307.98 160.985 1316.19 174.542C1338.24 211.277 1368.92 242.329 1400.33 259.73C1425.73 273.849 1464.11 285.88 1502.66 263C1548.04 236.002 1600.19 264.348 1642.11 287.258C1651.14 292.184 1659.76 296.82 1667.74 300.716C1729.61 330.42 1776.85 326.285 1836.27 285.826C1858.47 270.701 1901.23 239.533 1938.33 200.588C1979.1 157.635 1999.9 118.824 2000.21 85.3568C2000.36 57.5691 1986.07 33.249 1957.45 13.1078C1933.51 -3.74076 1875.36 -7.24892 1813.97 -11.0046C1725.76 -16.3247 1625.86 -22.3848 1593.68 -69.8563C1581.26 -88.1442 1579.68 -111.429 1588.79 -139.311C1603.29 -183.444 1659.44 -227.582 1718.91 -274.313C1771.95 -316.023 1826.26 -358.832 1851.89 -402.61L1861.14 -404.357C1836.21 -357.519 1779.23 -312.608 1723.39 -268.774Z" fill="#17FFE5"/>
<path d="M1580.87 -284.983C1545.93 -258.614 1512.94 -233.596 1500.03 -206.354C1479.83 -163.738 1477.26 -118.805 1492.87 -79.7622C1508.75 -39.9116 1542.62 -8.24746 1588.05 9.19919C1606.32 16.1836 1640.07 19.8769 1675.94 23.7819C1747.68 31.592 1828.96 40.4256 1846.82 79.0431C1852.65 91.6934 1853.37 103.958 1848.91 115.483C1837.05 146.332 1790.77 166.003 1753.69 181.726C1737.66 188.561 1723.77 194.377 1715.61 199.97C1671.42 230.051 1636.23 233.016 1590.04 210.923C1583.14 207.561 1576.27 203.703 1568.86 199.578C1549.75 188.822 1530.06 177.563 1509.7 177.111C1499.71 176.911 1490.91 180.415 1481.55 184.149C1470.35 188.598 1458.7 193.255 1445.44 190.725C1392.75 181.034 1361.8 116.036 1336.94 63.7615C1330.01 49.2303 1323.49 35.4841 1317.26 24.6279C1276.64 -46.0332 1221.14 -142.739 1134.94 -177.654C1118.18 -184.433 1097.91 -190.303 1076.27 -194.318L1074.83 -201.905C1098.08 -197.825 1119.89 -191.632 1137.74 -184.321C1226.2 -148.483 1282.56 -50.4666 1323.59 21.0981C1330.01 32.2875 1336.56 46.1522 1343.62 60.7796C1367.84 111.58 1397.84 174.793 1446.96 183.807C1458.28 185.844 1468.34 181.856 1479.08 177.616C1488.69 173.837 1498.75 169.849 1510.08 170.04C1532.29 170.512 1552.78 182.11 1572.59 193.347C1579.75 197.398 1586.62 201.256 1593.24 204.426C1636.74 225.307 1669.84 222.368 1711.65 193.965C1720.36 188.023 1734.58 182.021 1750.94 175C1786.88 159.739 1831.45 140.759 1842.26 112.809C1846.06 103.006 1845.41 93.0604 1840.37 81.9802C1824.18 46.9771 1741.65 38.0119 1675.2 30.9204C1637.32 26.7811 1604.59 23.2643 1585.52 15.9401C1538.2 -2.37831 1502.85 -35.3596 1486.23 -77.1584C1469.89 -118.15 1472.45 -165.046 1493.53 -209.546C1507.24 -238.412 1540.87 -263.92 1576.58 -290.803C1608.09 -314.558 1640.22 -338.923 1658.67 -366.106L1668.63 -367.988C1650.21 -337.374 1615.17 -310.863 1580.87 -284.983Z" fill="#17FFE5"/>
<path d="M1453.42 -274.023L1451.13 -269.905C1422.83 -217.76 1390.78 -158.767 1421.7 -100.982C1429.31 -86.6973 1440.04 -73.3723 1450.31 -60.5732C1472.95 -32.3009 1496.39 -3.07313 1489.35 38.9125C1485.09 64.4065 1473.84 73.042 1465.06 75.9289C1450.94 80.4383 1433.38 73.1933 1415.81 55.5095C1389.15 28.7321 1372.85 -6.2646 1357.12 -40.1425C1349.49 -56.5108 1341.63 -73.4498 1332.83 -88.8603C1297.18 -150.91 1250.13 -233.038 1180.83 -275.831L1191.13 -277.778C1258.22 -233.092 1304.11 -153.202 1339.01 -92.4856C1348 -76.7416 1356 -59.7064 1363.66 -43.2195C1379.15 -9.91221 1395.2 24.3953 1420.97 50.3582C1436.39 65.7462 1451.66 72.5639 1462.89 68.9698C1472.61 65.9039 1479.28 55.0644 1482.25 37.6754C1488.78 -1.144 1467.3 -27.794 1444.66 -56.0663C1434.21 -69.1988 1423.3 -82.7387 1415.35 -97.572L1415.33 -97.6906C1382.65 -158.95 1415.71 -219.731 1444.81 -273.501L1447.1 -277.618C1447.82 -278.983 1448.93 -280.912 1450.21 -283.242C1459.99 -300.935 1468.37 -317.011 1475.21 -331.446L1484.09 -333.125C1475.55 -314.684 1465.59 -295.975 1456.53 -279.646C1455.13 -277.294 1454.14 -275.388 1453.42 -274.023Z" fill="#17FFE5"/>
<path d="M1978.1 781.917C1947.84 801.242 1918.98 811.388 1896.87 810.612C1865.38 809.5 1844.37 789.408 1824.14 769.891C1816.81 762.955 1809.17 755.633 1801.27 749.472C1780.6 733.385 1758.28 727.203 1734.62 720.619C1709.96 713.749 1684.51 706.739 1661.31 687.577L1660.89 687.12C1651.18 676.31 1644.03 665.896 1639.49 656.217C1613.46 617.976 1603.6 570.092 1641.83 546.307C1690.02 516.387 1761.78 576.833 1810.11 586.835C1875.72 600.487 1929.25 554.246 1995.01 560.197C2042.05 564.437 2080.27 608.117 2081.01 628.799C2081.12 631.284 2080.99 633.892 2080.76 636.427C2080.99 637.947 2081.12 639.394 2081.17 640.939C2081.98 662.127 2072.29 686.944 2053.1 712.824C2034.35 738.292 2007.02 763.395 1978.1 781.917ZM1736.68 713.584C1759.98 720.05 1784.01 726.753 1805.85 743.703C1814.04 750.08 1821.78 757.473 1829.23 764.651C1849.44 783.998 1868.63 802.29 1897.16 803.321C1939.32 804.836 2008.19 761.409 2047.38 708.582C2065.57 684.059 2074.71 660.79 2073.98 641.315C2073.22 620.464 2052.06 608.073 2011.39 604.354C1983.23 601.8 1954.62 603.714 1926.87 605.671C1889.88 608.136 1851.71 610.776 1813.79 602.939C1800 600.068 1786.16 595.217 1772.86 590.46C1738.52 578.211 1706.02 566.725 1672.85 587.345C1662.5 593.796 1654.48 600.766 1649.23 607.842C1634.13 628.198 1639.64 652.571 1666.13 682.289C1688.19 700.155 1712.85 707.024 1736.68 713.584Z" fill="#17FFE5"/>
</g>
</g>
<defs>
<clipPath id="clip0_1_291">
<rect width="1920" height="903" fill="white"/>
</clipPath>
</defs>
</svg>
