<svg width="375" height="767" viewBox="0 0 375 767" fill="none" xmlns="http://www.w3.org/2000/svg">
<g clip-path="url(#clip0_1_453)">
<g opacity="0.08">
<path d="M565.355 257.333C559.731 262.076 554.466 267.985 548.897 274.231C539.353 284.925 529.578 295.836 517.283 301.872C507.603 309.284 496.965 314.802 484.48 315.466C469.575 316.244 456.703 303.678 454.505 289.891C447.623 246.66 498.133 212.756 480.971 169.256L480.938 169.204C475.232 150.131 454.448 137.215 436.771 131.298C406.761 121.339 364.907 123.797 334.47 137.895C333.235 138.737 331.914 139.558 330.678 140.4C319.567 147.749 307.241 155.855 294.298 162.733C273.095 175.774 249.833 187.386 226.562 187.438C189.858 187.571 171.122 140.951 200.692 132.882C201.296 131.262 202.072 129.681 203.065 128.332C206.897 122.946 215.426 116.983 234.088 119.652C254.331 122.509 269.868 119.801 283.02 111.255C294.586 103.695 304.543 91.4263 315.332 71.5393C324.874 53.8911 331.34 32.5925 338.107 10.0092C348.631 -24.7946 359.542 -60.8632 382.992 -83.7205C397.372 -97.7151 416.776 -109.051 440.762 -117.38C452.51 -121.466 465.411 -124.878 479.306 -127.516L481.407 -124.138C467.15 -121.493 453.972 -118.056 441.979 -113.891C418.534 -105.753 399.553 -94.6793 385.583 -81.086C362.827 -58.88 352.036 -23.3253 341.645 11.1029C334.753 33.8377 328.279 55.3604 318.571 73.3312C307.504 93.8307 297.137 106.501 285.042 114.389C271.078 123.514 254.743 126.352 233.537 123.362C220.202 121.48 210.765 123.982 206.119 130.532C201.995 136.391 202.15 145.006 206.638 153.635C211.709 163.439 223.964 174.778 241.762 174.763C272.129 174.691 303.487 153.944 328.688 137.318C331.298 135.622 333.821 133.906 336.325 132.276C366.546 112.528 416.606 106.651 452.644 118.644C470.75 124.661 492.139 138.079 498.015 157.778L498.048 157.831C503.765 177.628 493.333 199.855 483.167 221.332C475.885 236.842 468.995 251.45 468.05 264.776C467.106 277.515 470.25 288.225 476.819 294.9C482.37 300.526 490.019 303.163 499.615 302.685C519.447 301.698 533.038 286.437 546.18 271.748C551.822 265.384 557.192 259.408 562.995 254.481C579.71 240.352 602.655 228.937 627.553 222.31C651.091 216.089 674.59 214.872 694.593 218.756L697.318 223.137C677.165 218.541 652.863 219.527 628.506 225.963C604.447 232.288 581.448 243.737 565.355 257.333Z" fill="#17FFE5"/>
<path d="M103.714 -187.101C84.1855 -154.081 65.6627 -122.858 66.8582 -100.091C67.605 -86.0532 72.0799 -76.385 80.5057 -70.4924C103.341 -54.7386 151.55 -70.146 194.091 -83.7133C226.155 -93.9873 253.858 -102.794 269.527 -98.9161C288.313 -94.2667 300.62 -84.4891 306.113 -69.8874C321.896 -28.1404 278.099 40.4078 264.262 60.4393C242.356 92.2279 219.513 103.432 182.652 100.576C178.037 100.223 173.002 99.546 167.657 98.842C144.213 95.7713 115.008 92.0353 99.5236 111.773C87.3848 127.233 68.9695 133.779 46.3035 130.664C27.368 128.012 6.17972 118.557 -11.7616 104.667C-18.2642 99.629 -24.6141 94.13 -30.7798 88.8093C-53.6264 69.0338 -75.2493 50.4015 -107.336 49.9226C-117.686 49.7682 -129.43 50.5534 -141.637 52.3595L-143.772 48.9266C-130.747 46.9048 -118.258 46.0222 -107.235 46.1979C-73.8038 46.7193 -50.6874 66.6932 -28.2749 86.0062C-22.142 91.2741 -15.8778 96.7532 -9.40807 101.738C8.0264 115.285 28.5494 124.494 46.8852 127.006C61.7146 129.063 82.3995 127.697 96.6607 109.525C113.441 88.1026 143.779 92.0125 168.186 95.2172C173.445 95.9011 178.448 96.5252 183.009 96.911C218.268 99.6647 240.201 88.8806 261.22 58.3757C269.071 46.9742 283.811 24.0372 294.39 -1.5855C305.984 -29.8168 308.75 -52.3382 302.668 -68.4774C297.568 -81.8587 286.17 -90.8827 268.669 -95.2326C254.027 -98.8709 225.433 -89.7299 195.236 -80.1045C151.858 -66.2358 102.726 -50.5469 78.422 -67.3654C69.0481 -73.8402 63.9562 -84.736 63.1392 -99.8287C61.8935 -123.737 80.6546 -155.4 100.527 -188.927C118.25 -218.846 136.376 -249.529 140.54 -275.337L144.66 -277.899C141.402 -250.751 122.383 -218.56 103.714 -187.101Z" fill="#17FFE5"/>
<path d="M32.2145 -168.354C20.3333 -149.176 9.14015 -131.013 8.00786 -115.519C6.23446 -91.2787 13.3669 -69.2098 28.136 -53.3548C43.1877 -37.1631 65.3579 -28.2542 90.4378 -28.3302C100.519 -28.3763 117.421 -32.8846 135.385 -37.6875C171.314 -47.2932 212.013 -58.1814 227.785 -42.9507C232.942 -37.9574 235.572 -32.198 235.576 -25.8306C235.62 -8.79831 217.043 9.27184 202.154 23.7306C195.724 29.9996 190.133 35.3804 187.255 39.5867C171.62 62.27 155.263 70.2466 128.955 68.2307C125.014 67.9 120.993 67.3252 116.663 66.7235C105.479 65.113 93.919 63.37 84.0537 66.9429C79.2168 68.7065 75.6419 72.0282 71.8357 75.5669C67.2828 79.7897 62.5515 84.1966 55.7115 85.4487C28.5886 90.6027 1.61297 65.1333 -20.0674 44.6442C-26.0993 38.9505 -31.7956 33.5607 -36.8096 29.5038C-69.4858 3.11349 -114.157 -33.0226 -162.08 -33.7495C-171.395 -33.8864 -182.23 -32.9322 -193.377 -30.8316L-195.479 -34.2105C-183.546 -36.5797 -171.913 -37.6643 -161.978 -37.4734C-112.797 -36.7243 -67.467 -0.118958 -34.4225 26.628C-29.2572 30.8105 -23.528 36.2531 -17.4105 41.9666C3.68456 61.868 29.8706 86.657 55.1533 81.8421C60.971 80.7132 65.0613 76.9246 69.4358 72.8861C73.3476 69.2816 77.4379 65.493 82.9216 63.4736C93.6777 59.5662 105.686 61.3234 117.299 63.0336C121.49 63.6482 125.51 64.2229 129.281 64.5138C154.072 66.4476 169.433 58.8712 184.234 37.4385C187.31 32.9624 193.027 27.4303 199.583 21.0099C214.009 6.9853 231.893 -10.4337 231.884 -25.8775C231.884 -31.2956 229.72 -35.9534 225.234 -40.3389C210.935 -54.143 169.609 -43.0846 136.359 -34.1196C117.385 -29.0551 101.004 -24.6512 90.4749 -24.6191C64.3271 -24.6111 41.2018 -33.8779 25.4334 -50.8686C9.94759 -67.5225 2.44826 -90.5347 4.29021 -115.842C5.50389 -132.266 16.9154 -150.785 29.068 -170.351C39.7842 -187.632 50.6861 -205.322 54.491 -221.819L58.9282 -224.579C55.7786 -206.439 43.8773 -187.176 32.2145 -168.354Z" fill="#17FFE5"/>
<path d="M-26.9882 -139.356L-27.3217 -136.951C-31.2139 -106.624 -35.6268 -72.3106 -10.012 -50.3004C-3.6972 -44.8524 3.94349 -40.4489 11.2617 -36.211C27.4052 -26.8413 44.1081 -17.1603 48.5445 4.32467C51.243 17.3687 47.4445 23.6131 43.7634 26.635C37.8198 31.4302 28.031 31.2192 16.2942 25.9939C-1.49872 18.0895 -15.8494 4.3088 -29.7134 -9.0422C-36.4284 -15.4864 -43.3604 -22.1619 -50.4587 -27.9283C-79.1412 -51.1068 -117.04 -81.8106 -158.312 -89.4687L-153.722 -92.3233C-113.164 -83.3424 -76.2386 -53.498 -48.1612 -30.8221C-40.9117 -24.9301 -33.8941 -18.2346 -27.1462 -11.7375C-13.4993 1.38222 0.6016 14.8789 17.8152 22.5576C28.0907 27.0803 36.7 27.5122 41.4232 23.6957C45.5263 20.4114 46.7099 13.9621 44.9003 5.053C40.8103 -14.8163 25.5289 -23.6234 9.38537 -32.9931C1.91585 -37.3567 -5.84335 -41.8331 -12.4279 -47.4795L-12.4608 -47.5323C-39.5686 -70.8844 -35.0025 -106.245 -31.0296 -137.501L-30.6962 -139.906C-30.6026 -140.697 -30.4294 -141.83 -30.2492 -143.187C-28.8416 -153.511 -27.8113 -162.795 -27.211 -171.006L-23.2543 -173.466C-23.9243 -163.015 -25.2273 -152.17 -26.5413 -142.637C-26.7743 -141.247 -26.8947 -140.146 -26.9882 -139.356Z" fill="#17FFE5"/>
<path d="M421.742 270.347C410.799 285.268 398.819 295.518 388.048 299.262C372.714 304.589 358.877 298.847 345.521 293.236C340.709 291.267 335.673 289.172 330.729 287.683C317.8 283.802 305.928 284.986 293.33 286.228C280.203 287.519 266.667 288.89 251.95 284.001L251.667 283.859C244.987 280.473 239.612 276.8 235.628 272.995C216 259.466 202.346 238.293 216.286 219.746C233.871 196.396 279.611 212.079 304.696 207.887C338.762 202.231 355.876 170.044 388.582 160.66C411.976 153.938 438.476 167.81 442.681 177.611C443.197 178.785 443.619 180.062 443.982 181.323C444.373 182.011 444.704 182.683 445.019 183.414C449.354 193.444 449.318 207.174 444.912 223.184C440.649 238.911 432.188 256.063 421.742 270.347ZM293.011 282.464C305.412 281.232 318.207 279.979 331.856 284.058C336.98 285.597 342.075 287.708 346.991 289.771C360.304 295.305 372.93 300.521 386.834 295.703C407.371 288.582 432.381 254.891 441.374 222.211C445.549 207.04 445.611 194.156 441.633 184.934C437.385 175.057 424.909 173.043 404.675 178.828C390.67 182.843 377.275 189.091 364.306 195.198C346.991 203.27 329.141 211.646 309.463 214.94C302.299 216.129 294.749 216.373 287.472 216.564C268.69 217.072 250.934 217.605 238.832 233.69C235.062 238.716 232.503 243.56 231.299 247.937C227.834 260.53 235.021 271.215 253.283 280.563C267.21 285.04 280.337 283.75 293.011 282.464Z" fill="#17FFE5"/>
<path d="M382.54 82.6005C379.492 82.7005 375.289 81.6689 372.671 76.2636C370.217 71.2088 369.257 62.0883 370.608 56.7562C372.542 49.066 382.905 44.15 391.743 43.8601C398.04 43.6534 403.091 45.7249 405.507 49.6115C405.989 50.3583 406.373 51.2101 406.657 52.116C408.185 56.8452 406.51 63.1541 402.139 69.3988C397.621 75.801 389.803 82.3622 382.54 82.6005ZM403.788 53.0236C403.563 52.37 403.29 51.7689 402.966 51.2202C401.09 48.2819 397.074 46.7358 391.843 46.9074C382.091 47.2274 374.795 52.6529 373.531 57.5246C372.359 62.0882 373.297 70.5485 375.425 74.953C376.952 78.1061 379.291 79.6564 382.44 79.5531C387.773 79.3781 394.831 74.4688 399.69 67.5979C403.43 62.2382 404.98 56.7979 403.788 53.0236Z" fill="#17FFE5"/>
</g>
</g>
<defs>
<clipPath id="clip0_1_453">
<rect width="375" height="767" fill="white"/>
</clipPath>
</defs>
</svg>
