<svg width="1440" height="903" viewBox="0 0 1440 903" fill="none" xmlns="http://www.w3.org/2000/svg">
<g clip-path="url(#clip0_1_133)">
<g opacity="0.08">
<path d="M225.763 -165.929C232.153 -153.163 240.908 -140.544 250.159 -127.199C265.994 -104.332 282.134 -80.9307 287.932 -54.993C297.512 -33.3616 303.086 -10.7844 298.662 13.0697C293.353 41.5419 263.796 60.1114 236.788 57.9918C152.103 51.3198 111.109 -59.3802 21.2436 -46.7815L21.1291 -46.7435C-17.4447 -44.6497 -51.2596 -11.313 -70.4584 19.344C-102.89 71.4308 -117.282 151.505 -104.523 215.334C-103.497 218.047 -102.548 220.913 -101.522 223.626C-92.7082 247.928 -83.0211 274.867 -75.9292 302.411C-60.9682 348.338 -49.6366 397.502 -60.1192 441.426C-76.5543 510.729 -173.022 524.879 -174.8 465.426C-177.582 463.55 -180.211 461.368 -182.306 458.881C-190.722 449.203 -198.094 430.402 -184.575 396.411C-169.983 359.521 -168.028 328.98 -178.171 300.284C-187.174 275.026 -205.792 250.665 -238.404 221.271C-267.359 195.246 -304.599 173.365 -344.126 150.333C-404.998 114.656 -468.081 77.6753 -500.54 23.0443C-520.403 -10.4453 -532.967 -52.2048 -537.775 -101.24C-540.142 -125.262 -540.713 -151.15 -539.373 -178.562L-532.045 -180.99C-533.538 -152.891 -533.044 -126.468 -530.64 -101.951C-525.945 -54.0225 -513.685 -13.18 -494.392 19.3538C-462.846 72.3793 -400.678 108.899 -340.454 144.155C-300.698 167.493 -263.039 189.49 -233.551 215.975C-199.91 246.172 -180.721 271.489 -171.338 297.893C-160.474 328.385 -162.545 360.491 -177.826 399.137C-187.44 423.438 -187.011 442.377 -176.766 454.121C-167.588 464.564 -151.265 468.188 -132.946 463.645C-112.145 458.535 -85.1831 440.571 -77.1198 406.988C-63.4501 349.669 -88.3336 281.079 -108.24 225.979C-110.253 220.286 -112.343 214.745 -114.28 209.281C-137.795 143.291 -126.124 46.1812 -87.1137 -16.3533C-67.5321 -47.7731 -32.4951 -82.0235 7.33777 -84.1529L7.45229 -84.1908C47.3991 -85.9763 84.5887 -56.1914 120.482 -27.2493C146.431 -6.46116 170.856 13.1783 195.566 21.0202C219.17 28.5924 240.803 27.5314 256.383 18.172C269.519 10.2583 277.971 -2.97265 281.432 -21.2925C288.587 -59.1534 265.975 -91.7325 244.239 -123.203C234.798 -136.739 225.967 -149.587 219.311 -162.774C200.256 -200.729 189.152 -249.205 187.97 -299.188C186.936 -346.421 195.322 -391.304 211.744 -427.275L221.248 -430.423C203.415 -394.494 194.225 -348.2 195.295 -299.325C196.289 -251.061 207.431 -202.47 225.763 -165.929Z" fill="#17FFE5"/>
</g>
<g opacity="0.08">
<path d="M2007.08 859.059C1993.58 863.697 1979.91 870.699 1965.46 878.095C1940.69 890.754 1915.35 903.643 1888.87 905.945C1866.16 912.568 1843.04 915.094 1819.99 907.542C1792.47 898.499 1777.99 866.737 1783.68 840.25C1801.54 757.202 1916.7 731.271 1916.15 640.528L1916.13 640.41C1919.18 601.9 1890.63 563.957 1862.79 540.857C1815.47 501.795 1738.02 476.898 1673.06 481.067C1670.23 481.723 1667.27 482.284 1664.44 482.94C1639.18 488.449 1611.2 494.473 1582.96 497.844C1535.45 506.573 1485.22 511.276 1443.07 495.053C1376.57 469.56 1375.35 372.068 1434.51 378.201C1436.74 375.693 1439.26 373.376 1442 371.631C1452.71 364.574 1472.32 359.764 1504.22 377.677C1538.84 397.039 1568.85 403.032 1598.64 396.791C1624.87 391.222 1651.49 376.003 1684.95 347.583C1714.59 322.341 1741.23 288.337 1769.3 252.218C1812.75 196.623 1857.78 139.01 1916.24 114.093C1952.07 98.8533 1995.13 91.9464 2044.37 93.6928C2068.49 94.5372 2094.22 97.4095 2121.21 102.377L2122.65 109.963C2095 104.752 2068.74 101.732 2044.12 100.859C1995.99 99.1481 1953.89 105.876 1919.08 120.677C1862.33 144.902 1817.88 201.669 1774.94 256.678C1746.53 292.983 1719.73 327.387 1689.56 353.097C1655.16 382.43 1627.52 398.087 1600.1 403.88C1568.44 410.599 1536.89 404.282 1500.62 384.004C1477.81 371.249 1458.98 369.159 1445.98 377.753C1434.41 385.463 1428.65 401.16 1430.72 419.921C1433.02 441.215 1447.25 470.325 1479.46 482.776C1534.46 503.937 1605.75 488.382 1663 475.969C1668.91 474.73 1674.68 473.394 1680.35 472.2C1748.88 457.657 1843.58 482.121 1900.38 529.09C1928.92 552.671 1958.22 591.946 1955.04 631.709L1955.06 631.827C1951.53 671.657 1917.07 704.562 1883.61 736.295C1859.56 759.253 1836.85 780.853 1825.8 804.303C1815.16 826.692 1813.34 848.274 1820.55 864.959C1826.65 879.03 1838.64 889.164 1856.34 895.028C1892.91 907.147 1928.2 889.062 1962.28 871.697C1976.95 864.138 1990.86 857.091 2004.81 852.245C2044.96 838.399 2094.48 833.831 2144.18 839.297C2191.13 844.545 2234.51 858.817 2267.98 879.87L2269.84 889.709C2236.59 867.262 2191.93 852.006 2143.34 846.576C2095.38 841.151 2045.74 845.742 2007.08 859.059Z" fill="#17FFE5"/>
<path d="M1483.39 -268.774C1424.9 -222.719 1369.5 -179.212 1355.7 -137.178C1347.21 -111.254 1348.53 -90.6231 1359.64 -74.0535C1389.91 -29.5375 1487.94 -23.6157 1574.43 -18.3377C1639.65 -14.4464 1695.95 -10.9579 1721.59 7.0448C1752.32 28.6289 1767.73 54.9493 1767.43 85.2208C1766.72 171.824 1639.41 265.149 1600.33 291.693C1538.41 333.852 1489.22 338.109 1424.52 307.097C1416.42 303.223 1407.79 298.468 1398.61 293.446C1358.34 271.453 1308.12 244.217 1266.26 269.074C1233.46 288.537 1195.55 287.469 1156.72 265.941C1124.32 247.866 1092.61 215.904 1069.88 178.191C1061.65 164.516 1054.01 150.114 1046.59 136.164C1019.11 84.3632 993.053 35.4893 935.331 12.1261C916.711 4.58953 894.911 -2.22339 871.557 -7.51438L870.101 -15.2228C895.087 -9.74876 918.303 -2.5894 938.125 5.45702C998.25 29.8401 1026.07 82.1886 1053.09 132.848C1060.49 146.68 1067.98 160.985 1076.19 174.542C1098.24 211.277 1128.92 242.329 1160.33 259.73C1185.73 273.849 1224.11 285.88 1262.66 263C1308.04 236.002 1360.19 264.348 1402.11 287.258C1411.14 292.184 1419.76 296.82 1427.74 300.716C1489.61 330.42 1536.85 326.285 1596.27 285.826C1618.47 270.701 1661.23 239.533 1698.33 200.588C1739.1 157.635 1759.9 118.824 1760.21 85.3568C1760.36 57.5691 1746.07 33.249 1717.45 13.1078C1693.51 -3.74076 1635.36 -7.24892 1573.97 -11.0046C1485.76 -16.3247 1385.86 -22.3848 1353.68 -69.8563C1341.26 -88.1442 1339.68 -111.429 1348.79 -139.311C1363.29 -183.444 1419.44 -227.582 1478.91 -274.313C1531.95 -316.023 1586.26 -358.832 1611.89 -402.61L1621.14 -404.357C1596.21 -357.519 1539.23 -312.608 1483.39 -268.774Z" fill="#17FFE5"/>
<path d="M1340.87 -284.983C1305.93 -258.614 1272.94 -233.596 1260.03 -206.354C1239.83 -163.738 1237.26 -118.805 1252.87 -79.7622C1268.75 -39.9116 1302.62 -8.24746 1348.05 9.19919C1366.32 16.1836 1400.07 19.8769 1435.94 23.7819C1507.68 31.592 1588.96 40.4256 1606.82 79.0431C1612.65 91.6934 1613.37 103.958 1608.91 115.483C1597.05 146.332 1550.77 166.003 1513.69 181.726C1497.66 188.561 1483.77 194.377 1475.61 199.97C1431.42 230.051 1396.23 233.016 1350.04 210.923C1343.14 207.561 1336.27 203.703 1328.86 199.578C1309.75 188.822 1290.06 177.563 1269.7 177.111C1259.71 176.911 1250.91 180.415 1241.55 184.149C1230.35 188.598 1218.7 193.255 1205.44 190.725C1152.75 181.034 1121.8 116.036 1096.94 63.7615C1090.01 49.2303 1083.49 35.4841 1077.26 24.6279C1036.64 -46.0332 981.143 -142.739 894.941 -177.654C878.182 -184.433 857.908 -190.303 836.266 -194.318L834.832 -201.905C858.084 -197.825 879.893 -191.632 897.736 -184.321C986.201 -148.483 1042.56 -50.4666 1083.59 21.0981C1090.01 32.2875 1096.56 46.1522 1103.62 60.7796C1127.84 111.58 1157.84 174.793 1206.96 183.807C1218.28 185.844 1228.34 181.856 1239.08 177.616C1248.69 173.837 1258.75 169.849 1270.08 170.04C1292.29 170.512 1312.78 182.11 1332.59 193.347C1339.75 197.398 1346.62 201.256 1353.24 204.426C1396.74 225.307 1429.84 222.368 1471.65 193.965C1480.36 188.023 1494.58 182.021 1510.94 175C1546.88 159.739 1591.45 140.759 1602.26 112.809C1606.06 103.006 1605.41 93.0604 1600.37 81.9802C1584.18 46.9771 1501.65 38.0119 1435.2 30.9204C1397.32 26.7811 1364.59 23.2643 1345.52 15.9401C1298.2 -2.37831 1262.85 -35.3596 1246.23 -77.1584C1229.89 -118.15 1232.45 -165.046 1253.53 -209.546C1267.24 -238.412 1300.87 -263.92 1336.58 -290.803C1368.09 -314.558 1400.22 -338.923 1418.67 -366.106L1428.63 -367.988C1410.21 -337.374 1375.17 -310.863 1340.87 -284.983Z" fill="#17FFE5"/>
<path d="M1213.42 -274.023L1211.13 -269.905C1182.83 -217.76 1150.78 -158.767 1181.7 -100.982C1189.31 -86.6973 1200.04 -73.3723 1210.31 -60.5732C1232.95 -32.3009 1256.39 -3.07313 1249.35 38.9125C1245.09 64.4065 1233.84 73.042 1225.06 75.9289C1210.94 80.4383 1193.38 73.1933 1175.81 55.5095C1149.15 28.7321 1132.85 -6.2646 1117.12 -40.1425C1109.49 -56.5108 1101.63 -73.4498 1092.83 -88.8603C1057.18 -150.91 1010.13 -233.038 940.825 -275.831L951.132 -277.778C1018.22 -233.092 1064.11 -153.202 1099.01 -92.4856C1108 -76.7416 1116 -59.7064 1123.66 -43.2195C1139.15 -9.91221 1155.2 24.3953 1180.97 50.3582C1196.39 65.7462 1211.66 72.5639 1222.89 68.9698C1232.61 65.9039 1239.28 55.0644 1242.25 37.6754C1248.78 -1.144 1227.3 -27.794 1204.66 -56.0663C1194.21 -69.1988 1183.3 -82.7387 1175.35 -97.572L1175.33 -97.6906C1142.65 -158.95 1175.71 -219.731 1204.81 -273.501L1207.1 -277.618C1207.82 -278.983 1208.93 -280.912 1210.21 -283.242C1219.99 -300.935 1228.37 -317.011 1235.21 -331.446L1244.09 -333.125C1235.55 -314.684 1225.59 -295.975 1216.53 -279.646C1215.13 -277.294 1214.14 -275.388 1213.42 -274.023Z" fill="#17FFE5"/>
<path d="M1738.1 781.917C1707.84 801.242 1678.98 811.388 1656.87 810.612C1625.38 809.5 1604.37 789.408 1584.14 769.891C1576.81 762.955 1569.17 755.633 1561.27 749.472C1540.6 733.385 1518.28 727.203 1494.62 720.619C1469.96 713.749 1444.51 706.739 1421.31 687.577L1420.89 687.12C1411.18 676.31 1404.03 665.896 1399.49 656.217C1373.46 617.976 1363.6 570.092 1401.83 546.307C1450.02 516.387 1521.78 576.833 1570.11 586.835C1635.72 600.487 1689.25 554.246 1755.01 560.197C1802.05 564.437 1840.27 608.117 1841.01 628.799C1841.12 631.284 1840.99 633.892 1840.76 636.427C1840.99 637.947 1841.12 639.394 1841.17 640.939C1841.98 662.127 1832.29 686.944 1813.1 712.824C1794.35 738.292 1767.02 763.395 1738.1 781.917ZM1496.68 713.584C1519.98 720.05 1544.01 726.753 1565.85 743.703C1574.04 750.08 1581.78 757.473 1589.23 764.651C1609.44 783.998 1628.63 802.29 1657.16 803.321C1699.32 804.836 1768.19 761.409 1807.38 708.582C1825.57 684.059 1834.71 660.79 1833.98 641.315C1833.22 620.464 1812.06 608.073 1771.39 604.354C1743.23 601.8 1714.62 603.714 1686.87 605.671C1649.88 608.136 1611.71 610.776 1573.79 602.939C1560 600.068 1546.16 595.217 1532.86 590.46C1498.52 578.211 1466.02 566.725 1432.85 587.345C1422.5 593.796 1414.48 600.766 1409.23 607.842C1394.13 628.198 1399.64 652.571 1426.13 682.289C1448.19 700.155 1472.85 707.024 1496.68 713.584Z" fill="#17FFE5"/>
</g>
</g>
<defs>
<clipPath id="clip0_1_133">
<rect width="1920" height="903" fill="white" transform="translate(-240)"/>
</clipPath>
</defs>
</svg>
